<svg xmlns="http://www.w3.org/2000/svg" viewBox="0 0 128 128" width="128" height="128">
  <defs>
    <linearGradient id="grad_cryptomator" x1="0%" y1="0%" x2="100%" y2="100%">
      <stop offset="0%" stop-color="#059669"/>
      <stop offset="100%" stop-color="#064E3B"/>
    </linearGradient>
  </defs>
  <rect x="8" y="8" width="112" height="112" rx="26" fill="url(#grad_cryptomator)" stroke="#6EE7B7" stroke-width="3"/>
  <path d="M46 64 C40 64 36 68 36 74 C36 80 40 84 46 84 H82 C88 84 92 80 92 74 C92 68 88 64 82 64 C82 52 72 44 60 44 C52 44 46 50 46 64 Z" fill="#D1FAE5"/>
                  <rect x="56" y="66" width="16" height="14" rx="2" fill="#059669"/>
                  <path d="M59 66 V60 C59 56 69 56 69 60 V66" fill="none" stroke="#059669" stroke-width="2.5"/>
</svg>
